<?xml version="1.0" encoding="UTF-8" standalone="no"?>
<!DOCTYPE svg PUBLIC "-//W3C//DTD SVG 1.1//EN" "http://www.w3.org/Graphics/SVG/1.1/DTD/svg11.dtd">
<!-- Generated by Microsoft Visio, SVG Export complimentary systems.svg Page-1 -->
<svg xmlns="http://www.w3.org/2000/svg" xmlns:xlink="http://www.w3.org/1999/xlink" xmlns:ev="http://www.w3.org/2001/xml-events"
		xmlns:v="http://schemas.microsoft.com/visio/2003/SVGExtensions/" width="9.22183in" height="6.6533in"
		viewBox="0 0 663.972 479.037" xml:space="preserve" color-interpolation-filters="sRGB" class="st15">
	<v:documentProperties v:langID="1033" v:viewMarkup="false">
		<v:userDefs>
			<v:ud v:nameU="msvSubprocessMaster" v:prompt="" v:val="VT4(Rectangle)"/>
			<v:ud v:nameU="msvNoAutoConnect" v:val="VT0(1):26"/>
		</v:userDefs>
	</v:documentProperties>

	<style type="text/css">
	<![CDATA[
		.st1 {fill:none;stroke:none;stroke-width:0.25}
		.st2 {fill:#d1526e;font-family:Oswald;font-size:1.5em}
		.st3 {fill:#cecab5;stroke:none;stroke-width:0.25}
		.st4 {fill:#272324;stroke:#272324;stroke-linecap:butt;stroke-width:0.75}
		.st5 {fill:#d1526e;font-family:Montserrat;font-size:1.00001em}
		.st6 {marker-end:url(#mrkr4-40);stroke:#7996b5;stroke-linecap:round;stroke-linejoin:round;stroke-width:2}
		.st7 {fill:#7996b5;fill-opacity:1;stroke:#7996b5;stroke-opacity:1;stroke-width:0.52631578947368}
		.st8 {stroke:#7996b5;stroke-width:2}
		.st9 {fill:#000000;font-family:Oswald;font-size:1.5em}
		.st10 {fill:#d1526e;font-family:Oswald;font-size:0.666664em}
		.st11 {fill:#000000;font-family:Oswald;font-size:0.666664em}
		.st12 {fill:#7f7f7f;stroke:none;stroke-width:0.25}
		.st13 {fill:none;stroke:#272324;stroke-width:1.5}
		.st14 {fill:#d1526e;font-family:Oswald;font-size:1.00001em}
		.st15 {fill:none;fill-rule:evenodd;font-size:12px;overflow:visible;stroke-linecap:square;stroke-miterlimit:3}
	]]>
	</style>

	<defs id="Markers">
		<g id="lend4">
			<path d="M 2 1 L 0 0 L 2 -1 L 2 1 " style="stroke:none"/>
		</g>
		<marker id="mrkr4-40" class="st7" v:arrowType="4" v:arrowSize="1" v:setback="3.8" refX="-3.8" orient="auto"
				markerUnits="strokeWidth" overflow="visible">
			<use xlink:href="#lend4" transform="scale(-1.9,-1.9) "/>
		</marker>
	</defs>
	<g v:mID="0" v:index="1" v:groupContext="foregroundPage">
		<v:userDefs>
			<v:ud v:nameU="msvThemeOrder" v:val="VT0(0):26"/>
		</v:userDefs>
		<title>Page-1</title>
		<v:pageProperties v:drawingScale="1" v:pageScale="1" v:drawingUnits="0" v:shadowOffsetX="9" v:shadowOffsetY="-9"/>
		<v:layer v:name="Connector" v:index="0"/>
		<g id="shape24-1" v:mID="24" v:groupContext="shape" transform="translate(30.625,-191.09)">
			<title>Sheet.24</title>
			<desc>Translation/localization</desc>
			<v:textBlock v:margins="rect(4,4,4,4)"/>
			<v:textRect cx="81" cy="461.037" width="162.01" height="36"/>
			<rect x="0" y="443.037" width="162" height="36" class="st1"/>
			<text x="4.31" y="466.44" class="st2" v:langID="1033"><v:paragraph v:horizAlign="1"/><v:tabList/>Translation/localization</text>		</g>
		<g id="shape25-4" v:mID="25" v:groupContext="shape" transform="translate(-457.412,314.255) rotate(-90)">
			<title>Rectangle.25</title>
			<v:userDefs>
				<v:ud v:nameU="visVersion" v:val="VT0(15):26"/>
			</v:userDefs>
			<rect x="0" y="475.662" width="88.6154" height="3.375" class="st3"/>
		</g>
		<g id="group40-6" transform="translate(18.25,-35.8888)" v:mID="40" v:groupContext="group">
			<title>Sheet.40</title>
			<g id="shape18-7" v:mID="18" v:groupContext="shape" transform="translate(10.035,-6.05769)">
				<title>Sheet.18</title>
				<desc>Media/format</desc>
				<v:textBlock v:margins="rect(4,4,4,4)"/>
				<v:textRect cx="49.5" cy="461.037" width="99" height="36"/>
				<rect x="0" y="443.037" width="99" height="36" class="st1"/>
				<text x="4.55" y="466.44" class="st2" v:langID="1033"><v:paragraph v:horizAlign="1"/><v:tabList/>Media/format</text>			</g>
			<g id="shape28-10" v:mID="28" v:groupContext="shape" transform="translate(-475.662,479.037) rotate(-90)">
				<title>Rectangle.28</title>
				<v:userDefs>
					<v:ud v:nameU="visVersion" v:val="VT0(15):26"/>
				</v:userDefs>
				<rect x="0" y="475.662" width="48.1154" height="3.375" class="st3"/>
			</g>
		</g>
		<g id="shape34-12" v:mID="34" v:groupContext="shape" transform="translate(32.965,-378.484)">
			<title>Sheet.34</title>
			<desc>Manual v1.0</desc>
			<v:textBlock v:margins="rect(4,4,4,4)"/>
			<v:textRect cx="44.935" cy="461.037" width="89.87" height="36"/>
			<rect x="0" y="443.037" width="89.8699" height="36" class="st1"/>
			<text x="5.92" y="466.44" class="st2" v:langID="1033"><v:paragraph v:horizAlign="1"/><v:tabList/>Manual v1.0</text>		</g>
		<g id="shape35-15" v:mID="35" v:groupContext="shape" transform="translate(-457.412,144.861) rotate(-90)">
			<title>Rectangle.35</title>
			<v:userDefs>
				<v:ud v:nameU="visVersion" v:val="VT0(15):26"/>
			</v:userDefs>
			<rect x="0" y="475.662" width="124.615" height="3.375" class="st3"/>
		</g>
		<g id="group66-17" transform="translate(249.258,-144.533)" v:mID="66" v:groupContext="group">
			<title>Sheet.66</title>
			<g id="shape2-18" v:mID="2" v:groupContext="shape" transform="translate(0,-20.25)">
				<title>Document.2</title>
				<v:userDefs>
					<v:ud v:nameU="msvShapeCategories" v:prompt="" v:val="VT4(Icon)"/>
					<v:ud v:nameU="visVersion" v:prompt="" v:val="VT0(15):26"/>
				</v:userDefs>
				<path d="M13.85 459.65 L13.85 456.88 L58.15 456.88 L58.15 459.65 L13.85 459.65 ZM13.85 448.58 L13.85 445.81 L58.15
							 445.81 L58.15 448.58 L13.85 448.58 ZM13.85 437.5 L13.85 434.73 L58.15 434.73 L58.15 437.5 L13.85 437.5
							 ZM13.85 426.42 L13.85 423.65 L58.15 423.65 L58.15 426.42 L13.85 426.42 ZM13.85 415.34 L13.85 412.58
							 L41.65 412.58 L41.65 415.34 L13.85 415.34 ZM66.46 473.5 L66.46 412.58 L49.85 412.58 L49.85 395.96 L5.54
							 395.96 L5.54 473.5 L66.46 473.5 ZM65.77 409.81 L52.62 396.65 L52.62 409.81 L65.77 409.81 ZM54.69 390.42
							 L72 407.73 L72 479.04 L0 479.04 L0 390.42 L54.69 390.42 Z" class="st4"/>
			</g>
			<g id="shape58-20" v:mID="58" v:groupContext="shape" transform="translate(0.18,-1.13687E-013)">
				<title>Sheet.58</title>
				<desc>English</desc>
				<v:textBlock v:margins="rect(4,4,4,4)"/>
				<v:textRect cx="36" cy="472.005" width="72" height="14.0653"/>
				<rect x="0" y="464.972" width="72" height="14.0653" class="st1"/>
				<text x="13.58" y="475.6" class="st5" v:langID="1033"><v:paragraph v:horizAlign="1"/><v:tabList/>English</text>			</g>
		</g>
		<g id="group67-23" transform="translate(356.785,-144.533)" v:mID="67" v:groupContext="group">
			<title>Sheet.67</title>
			<g id="shape5-24" v:mID="5" v:groupContext="shape" transform="translate(0,-20.25)">
				<title>Document.5</title>
				<v:userDefs>
					<v:ud v:nameU="msvShapeCategories" v:prompt="" v:val="VT4(Icon)"/>
					<v:ud v:nameU="visVersion" v:prompt="" v:val="VT0(15):26"/>
				</v:userDefs>
				<path d="M13.85 459.65 L13.85 456.88 L58.15 456.88 L58.15 459.65 L13.85 459.65 ZM13.85 448.58 L13.85 445.81 L58.15
							 445.81 L58.15 448.58 L13.85 448.58 ZM13.85 437.5 L13.85 434.73 L58.15 434.73 L58.15 437.5 L13.85 437.5
							 ZM13.85 426.42 L13.85 423.65 L58.15 423.65 L58.15 426.42 L13.85 426.42 ZM13.85 415.34 L13.85 412.58
							 L41.65 412.58 L41.65 415.34 L13.85 415.34 ZM66.46 473.5 L66.46 412.58 L49.85 412.58 L49.85 395.96 L5.54
							 395.96 L5.54 473.5 L66.46 473.5 ZM65.77 409.81 L52.62 396.65 L52.62 409.81 L65.77 409.81 ZM54.69 390.42
							 L72 407.73 L72 479.04 L0 479.04 L0 390.42 L54.69 390.42 Z" class="st4"/>
			</g>
			<g id="shape59-26" v:mID="59" v:groupContext="shape" transform="translate(0.18,-1.13687E-013)">
				<title>Sheet.59</title>
				<desc>German</desc>
				<v:textBlock v:margins="rect(4,4,4,4)"/>
				<v:textRect cx="36" cy="472.005" width="72" height="14.0653"/>
				<rect x="0" y="464.972" width="72" height="14.0653" class="st1"/>
				<text x="11.36" y="475.6" class="st5" v:langID="1033"><v:paragraph v:horizAlign="1"/><v:tabList/>German</text>			</g>
		</g>
		<g id="group68-29" transform="translate(464.364,-144.533)" v:mID="68" v:groupContext="group">
			<title>Sheet.68</title>
			<g id="shape6-30" v:mID="6" v:groupContext="shape" transform="translate(0,-20.25)">
				<title>Document.6</title>
				<v:userDefs>
					<v:ud v:nameU="msvShapeCategories" v:prompt="" v:val="VT4(Icon)"/>
					<v:ud v:nameU="visVersion" v:prompt="" v:val="VT0(15):26"/>
				</v:userDefs>
				<path d="M13.85 459.65 L13.85 456.88 L58.15 456.88 L58.15 459.65 L13.85 459.65 ZM13.85 448.58 L13.85 445.81 L58.15
							 445.81 L58.15 448.58 L13.85 448.58 ZM13.85 437.5 L13.85 434.73 L58.15 434.73 L58.15 437.5 L13.85 437.5
							 ZM13.85 426.42 L13.85 423.65 L58.15 423.65 L58.15 426.42 L13.85 426.42 ZM13.85 415.34 L13.85 412.58
							 L41.65 412.58 L41.65 415.34 L13.85 415.34 ZM66.46 473.5 L66.46 412.58 L49.85 412.58 L49.85 395.96 L5.54
							 395.96 L5.54 473.5 L66.46 473.5 ZM65.77 409.81 L52.62 396.65 L52.62 409.81 L65.77 409.81 ZM54.69 390.42
							 L72 407.73 L72 479.04 L0 479.04 L0 390.42 L54.69 390.42 Z" class="st4"/>
			</g>
			<g id="shape60-32" v:mID="60" v:groupContext="shape" transform="translate(0.18,-1.13687E-013)">
				<title>Sheet.60</title>
				<desc>Japanese</desc>
				<v:textBlock v:margins="rect(4,4,4,4)"/>
				<v:textRect cx="36" cy="472.005" width="72" height="14.0653"/>
				<rect x="0" y="464.972" width="72" height="14.0653" class="st1"/>
				<text x="7.6" y="475.6" class="st5" v:langID="1033"><v:paragraph v:horizAlign="1"/><v:tabList/>Japanese</text>			</g>
		</g>
		<g id="shape1010-35" v:mID="1010" v:groupContext="shape" v:layerMember="0" transform="translate(394.562,-334.177)">
			<title>Dynamic connector.1010</title>
			<path d="M0 479.04 L0 517.93 L-109.13 517.93 L-109.13 552.22" class="st6"/>
		</g>
		<g id="shape1012-41" v:mID="1012" v:groupContext="shape" v:layerMember="0" transform="translate(394.562,-334.177)">
			<title>Dynamic connector.1012</title>
			<path d="M0 479.04 L0 517.93 L104.68 517.93 L104.68 552.22" class="st6"/>
		</g>
		<g id="shape1013-46" v:mID="1013" v:groupContext="shape" v:layerMember="0" transform="translate(403.563,-334.177)">
			<title>Dynamic connector.1013</title>
			<path d="M-9 479.04 L-9 552.22" class="st6"/>
		</g>
		<g id="shape1014-51" v:mID="1014" v:groupContext="shape" v:layerMember="0" transform="translate(285.438,-144.18)">
			<title>Dynamic connector.1014</title>
			<path d="M0 479.04 L0 507.94 L-24.19 507.94 L-24.19 531.61" class="st6"/>
		</g>
		<g id="shape1015-56" v:mID="1015" v:groupContext="shape" v:layerMember="0" transform="translate(285.438,-144.18)">
			<title>Dynamic connector.1015</title>
			<path d="M0 479.04 L0 507.94 L25.17 507.94 L25.17 531.61" class="st6"/>
		</g>
		<g id="shape1016-61" v:mID="1016" v:groupContext="shape" v:layerMember="0" transform="translate(393.438,-144.533)">
			<title>Dynamic connector.1016</title>
			<path d="M0 479.04 L0 508.29 L-24.61 508.29 L-24.61 531.97" class="st6"/>
		</g>
		<g id="shape1017-66" v:mID="1017" v:groupContext="shape" v:layerMember="0" transform="translate(393.438,-144.533)">
			<title>Dynamic connector.1017</title>
			<path d="M0 479.04 L0 508.29 L24.75 508.29 L24.75 531.97" class="st6"/>
		</g>
		<g id="shape1019-71" v:mID="1019" v:groupContext="shape" v:layerMember="0" transform="translate(501.438,-144.533)">
			<title>Dynamic connector.1019</title>
			<path d="M0 479.04 L-0 508.29 L-25.03 508.29 L-25.03 531.97" class="st6"/>
		</g>
		<g id="shape1020-76" v:mID="1020" v:groupContext="shape" v:layerMember="0" transform="translate(501.438,-144.533)">
			<title>Dynamic connector.1020</title>
			<path d="M0 479.04 L-0 508.29 L24.33 508.29 L24.33 531.97" class="st6"/>
		</g>
		<g id="group1021-81" transform="translate(455.519,-18.25)" v:mID="1021" v:groupContext="group">
			<title>Sheet.1021</title>
			<g id="shape1006-82" v:mID="1006" v:groupContext="shape" transform="translate(-4.51639E-013,-17.6388)">
				<title>Document.1006</title>
				<v:userDefs>
					<v:ud v:nameU="msvShapeCategories" v:prompt="" v:val="VT4(Icon)"/>
					<v:ud v:nameU="visVersion" v:prompt="" v:val="VT0(15):26"/>
				</v:userDefs>
				<path d="M7.52 468.51 L7.52 467.01 L31.58 467.01 L31.58 468.51 L7.52 468.51 ZM7.52 462.5 L7.52 460.99 L31.58 460.99
							 L31.58 462.5 L7.52 462.5 ZM7.52 456.48 L7.52 454.98 L31.58 454.98 L31.58 456.48 L7.52 456.48 ZM7.52
							 450.47 L7.52 448.97 L31.58 448.97 L31.58 450.47 L7.52 450.47 ZM7.52 444.45 L7.52 442.95 L22.61 442.95
							 L22.61 444.45 L7.52 444.45 ZM36.09 476.03 L36.09 442.95 L27.06 442.95 L27.06 433.93 L3.01 433.93 L3.01
							 476.03 L36.09 476.03 ZM35.71 441.45 L28.57 434.3 L28.57 441.45 L35.71 441.45 ZM29.7 430.92 L39.09 440.32
							 L39.09 479.04 L0 479.04 L0 430.92 L29.7 430.92 Z" class="st4"/>
			</g>
			<g id="shape1007-84" v:mID="1007" v:groupContext="shape" transform="translate(50.6995,-17.6388)">
				<title>Document.1007</title>
				<v:userDefs>
					<v:ud v:nameU="msvShapeCategories" v:prompt="" v:val="VT4(Icon)"/>
					<v:ud v:nameU="visVersion" v:prompt="" v:val="VT0(15):26"/>
				</v:userDefs>
				<path d="M7.52 468.51 L7.52 467.01 L31.58 467.01 L31.58 468.51 L7.52 468.51 ZM7.52 462.5 L7.52 460.99 L31.58 460.99
							 L31.58 462.5 L7.52 462.5 ZM7.52 456.48 L7.52 454.98 L31.58 454.98 L31.58 456.48 L7.52 456.48 ZM7.52
							 450.47 L7.52 448.97 L31.58 448.97 L31.58 450.47 L7.52 450.47 ZM7.52 444.45 L7.52 442.95 L22.61 442.95
							 L22.61 444.45 L7.52 444.45 ZM36.09 476.03 L36.09 442.95 L27.06 442.95 L27.06 433.93 L3.01 433.93 L3.01
							 476.03 L36.09 476.03 ZM35.71 441.45 L28.57 434.3 L28.57 441.45 L35.71 441.45 ZM29.7 430.92 L39.09 440.32
							 L39.09 479.04 L0 479.04 L0 430.92 L29.7 430.92 Z" class="st4"/>
			</g>
			<g id="shape1008-86" v:mID="1008" v:groupContext="shape" transform="translate(0.0766406,5.68434E-014)">
				<title>Sheet.1008</title>
				<desc>print</desc>
				<v:textBlock v:margins="rect(4,4,4,4)"/>
				<v:textRect cx="19.5469" cy="472.005" width="39.1" height="14.0653"/>
				<rect x="0" y="464.972" width="39.0938" height="14.0653" class="st1"/>
				<text x="4.96" y="475.6" class="st5" v:langID="1033"><v:paragraph v:horizAlign="1"/><v:tabList/>print</text>			</g>
			<g id="shape1009-89" v:mID="1009" v:groupContext="shape" transform="translate(50.7762,5.68434E-014)">
				<title>Sheet.1009</title>
				<desc>web</desc>
				<v:textBlock v:margins="rect(4,4,4,4)"/>
				<v:textRect cx="19.5469" cy="472.005" width="39.1" height="14.0653"/>
				<rect x="0" y="464.972" width="39.0938" height="14.0653" class="st1"/>
				<text x="6.58" y="475.6" class="st5" v:langID="1033"><v:paragraph v:horizAlign="1"/><v:tabList/>web</text>			</g>
		</g>
		<g id="group1022-92" transform="translate(240.361,-18.25)" v:mID="1022" v:groupContext="group">
			<title>Sheet.1022</title>
			<g id="shape7-93" v:mID="7" v:groupContext="shape" transform="translate(-4.51639E-013,-17.6388)">
				<title>Document.7</title>
				<v:userDefs>
					<v:ud v:nameU="msvShapeCategories" v:prompt="" v:val="VT4(Icon)"/>
					<v:ud v:nameU="visVersion" v:prompt="" v:val="VT0(15):26"/>
				</v:userDefs>
				<path d="M7.52 468.51 L7.52 467.01 L31.58 467.01 L31.58 468.51 L7.52 468.51 ZM7.52 462.5 L7.52 460.99 L31.58 460.99
							 L31.58 462.5 L7.52 462.5 ZM7.52 456.48 L7.52 454.98 L31.58 454.98 L31.58 456.48 L7.52 456.48 ZM7.52
							 450.47 L7.52 448.97 L31.58 448.97 L31.58 450.47 L7.52 450.47 ZM7.52 444.45 L7.52 442.95 L22.61 442.95
							 L22.61 444.45 L7.52 444.45 ZM36.09 476.03 L36.09 442.95 L27.06 442.95 L27.06 433.93 L3.01 433.93 L3.01
							 476.03 L36.09 476.03 ZM35.71 441.45 L28.57 434.3 L28.57 441.45 L35.71 441.45 ZM29.7 430.92 L39.09 440.32
							 L39.09 479.04 L0 479.04 L0 430.92 L29.7 430.92 Z" class="st4"/>
			</g>
			<g id="shape9-95" v:mID="9" v:groupContext="shape" transform="translate(50.6995,-17.6388)">
				<title>Document.9</title>
				<v:userDefs>
					<v:ud v:nameU="msvShapeCategories" v:prompt="" v:val="VT4(Icon)"/>
					<v:ud v:nameU="visVersion" v:prompt="" v:val="VT0(15):26"/>
				</v:userDefs>
				<path d="M7.52 468.51 L7.52 467.01 L31.58 467.01 L31.58 468.51 L7.52 468.51 ZM7.52 462.5 L7.52 460.99 L31.58 460.99
							 L31.58 462.5 L7.52 462.5 ZM7.52 456.48 L7.52 454.98 L31.58 454.98 L31.58 456.48 L7.52 456.48 ZM7.52
							 450.47 L7.52 448.97 L31.58 448.97 L31.58 450.47 L7.52 450.47 ZM7.52 444.45 L7.52 442.95 L22.61 442.95
							 L22.61 444.45 L7.52 444.45 ZM36.09 476.03 L36.09 442.95 L27.06 442.95 L27.06 433.93 L3.01 433.93 L3.01
							 476.03 L36.09 476.03 ZM35.71 441.45 L28.57 434.3 L28.57 441.45 L35.71 441.45 ZM29.7 430.92 L39.09 440.32
							 L39.09 479.04 L0 479.04 L0 430.92 L29.7 430.92 Z" class="st4"/>
			</g>
			<g id="shape55-97" v:mID="55" v:groupContext="shape" transform="translate(0.0766406,5.68434E-014)">
				<title>Sheet.55</title>
				<desc>print</desc>
				<v:textBlock v:margins="rect(4,4,4,4)"/>
				<v:textRect cx="19.5469" cy="472.005" width="39.1" height="14.0653"/>
				<rect x="0" y="464.972" width="39.0938" height="14.0653" class="st1"/>
				<text x="4.96" y="475.6" class="st5" v:langID="1033"><v:paragraph v:horizAlign="1"/><v:tabList/>print</text>			</g>
			<g id="shape57-100" v:mID="57" v:groupContext="shape" transform="translate(50.7762,5.68434E-014)">
				<title>Sheet.57</title>
				<desc>web</desc>
				<v:textBlock v:margins="rect(4,4,4,4)"/>
				<v:textRect cx="19.5469" cy="472.005" width="39.1" height="14.0653"/>
				<rect x="0" y="464.972" width="39.0938" height="14.0653" class="st1"/>
				<text x="6.58" y="475.6" class="st5" v:langID="1033"><v:paragraph v:horizAlign="1"/><v:tabList/>web</text>			</g>
		</g>
		<g id="group1023-103" transform="translate(347.94,-18.25)" v:mID="1023" v:groupContext="group">
			<title>Sheet.1023</title>
			<g id="shape1001-104" v:mID="1001" v:groupContext="shape" transform="translate(-4.51639E-013,-17.6388)">
				<title>Document.1001</title>
				<v:userDefs>
					<v:ud v:nameU="msvShapeCategories" v:prompt="" v:val="VT4(Icon)"/>
					<v:ud v:nameU="visVersion" v:prompt="" v:val="VT0(15):26"/>
				</v:userDefs>
				<path d="M7.52 468.51 L7.52 467.01 L31.58 467.01 L31.58 468.51 L7.52 468.51 ZM7.52 462.5 L7.52 460.99 L31.58 460.99
							 L31.58 462.5 L7.52 462.5 ZM7.52 456.48 L7.52 454.98 L31.58 454.98 L31.58 456.48 L7.52 456.48 ZM7.52
							 450.47 L7.52 448.97 L31.58 448.97 L31.58 450.47 L7.52 450.47 ZM7.52 444.45 L7.52 442.95 L22.61 442.95
							 L22.61 444.45 L7.52 444.45 ZM36.09 476.03 L36.09 442.95 L27.06 442.95 L27.06 433.93 L3.01 433.93 L3.01
							 476.03 L36.09 476.03 ZM35.71 441.45 L28.57 434.3 L28.57 441.45 L35.71 441.45 ZM29.7 430.92 L39.09 440.32
							 L39.09 479.04 L0 479.04 L0 430.92 L29.7 430.92 Z" class="st4"/>
			</g>
			<g id="shape1002-106" v:mID="1002" v:groupContext="shape" transform="translate(50.6995,-17.6388)">
				<title>Document.1002</title>
				<v:userDefs>
					<v:ud v:nameU="msvShapeCategories" v:prompt="" v:val="VT4(Icon)"/>
					<v:ud v:nameU="visVersion" v:prompt="" v:val="VT0(15):26"/>
				</v:userDefs>
				<path d="M7.52 468.51 L7.52 467.01 L31.58 467.01 L31.58 468.51 L7.52 468.51 ZM7.52 462.5 L7.52 460.99 L31.58 460.99
							 L31.58 462.5 L7.52 462.5 ZM7.52 456.48 L7.52 454.98 L31.58 454.98 L31.58 456.48 L7.52 456.48 ZM7.52
							 450.47 L7.52 448.97 L31.58 448.97 L31.58 450.47 L7.52 450.47 ZM7.52 444.45 L7.52 442.95 L22.61 442.95
							 L22.61 444.45 L7.52 444.45 ZM36.09 476.03 L36.09 442.95 L27.06 442.95 L27.06 433.93 L3.01 433.93 L3.01
							 476.03 L36.09 476.03 ZM35.71 441.45 L28.57 434.3 L28.57 441.45 L35.71 441.45 ZM29.7 430.92 L39.09 440.32
							 L39.09 479.04 L0 479.04 L0 430.92 L29.7 430.92 Z" class="st4"/>
			</g>
			<g id="shape1003-108" v:mID="1003" v:groupContext="shape" transform="translate(0.0766406,5.68434E-014)">
				<title>Sheet.1003</title>
				<desc>print</desc>
				<v:textBlock v:margins="rect(4,4,4,4)"/>
				<v:textRect cx="19.5469" cy="472.005" width="39.1" height="14.0653"/>
				<rect x="0" y="464.972" width="39.0938" height="14.0653" class="st1"/>
				<text x="4.96" y="475.6" class="st5" v:langID="1033"><v:paragraph v:horizAlign="1"/><v:tabList/>print</text>			</g>
			<g id="shape1004-111" v:mID="1004" v:groupContext="shape" transform="translate(50.7762,5.68434E-014)">
				<title>Sheet.1004</title>
				<desc>web</desc>
				<v:textBlock v:margins="rect(4,4,4,4)"/>
				<v:textRect cx="19.5469" cy="472.005" width="39.1" height="14.0653"/>
				<rect x="0" y="464.972" width="39.0938" height="14.0653" class="st1"/>
				<text x="6.58" y="475.6" class="st5" v:langID="1033"><v:paragraph v:horizAlign="1"/><v:tabList/>web</text>			</g>
		</g>
		<g id="shape1099-114" v:mID="1099" v:groupContext="shape" transform="translate(342.543,-332.681)">
			<title>Document</title>
			<v:userDefs>
				<v:ud v:nameU="msvShapeCategories" v:prompt="" v:val="VT4(Icon)"/>
				<v:ud v:nameU="visVersion" v:prompt="" v:val="VT0(15):26"/>
			</v:userDefs>
			<path d="M19.94 451.12 L19.94 447.14 L83.74 447.14 L83.74 451.12 L19.94 451.12 ZM19.94 435.17 L19.94 431.18 L83.74 431.18
						 L83.74 435.17 L19.94 435.17 ZM19.94 419.22 L19.94 415.23 L83.74 415.23 L83.74 419.22 L19.94 419.22 ZM19.94
						 403.27 L19.94 399.28 L83.74 399.28 L83.74 403.27 L19.94 403.27 ZM19.94 387.32 L19.94 383.33 L59.97 383.33
						 L59.97 387.32 L19.94 387.32 ZM95.7 471.06 L95.7 383.33 L71.78 383.33 L71.78 359.41 L7.98 359.41 L7.98 471.06
						 L95.7 471.06 ZM94.71 379.34 L75.77 360.4 L75.77 379.34 L94.71 379.34 ZM78.76 351.43 L103.68 376.35 L103.68
						 479.04 L0 479.04 L0 351.43 L78.76 351.43 Z" class="st4"/>
		</g>
		<g id="group1171-116" transform="translate(447.77,-324)" v:mID="1171" v:groupContext="group">
			<title>Sheet.1171</title>
			<g id="shape1103-117" v:mID="1103" v:groupContext="shape" v:layerMember="0" transform="translate(0,-56.5202)">
				<title>Dynamic connector.1236</title>
				<path d="M0 470.09 L44.95 469.98" class="st8"/>
			</g>
			<g id="shape1112-120" v:mID="1112" v:groupContext="shape" v:layerMember="0" transform="translate(0,-65.4638)">
				<title>Dynamic connector.1234</title>
				<path d="M0 479.04 L24.18 479.04 L24.18 526.5 L49.22 526.5" class="st8"/>
			</g>
			<g id="shape1113-123" v:mID="1113" v:groupContext="shape" v:layerMember="0" transform="translate(0,-65.4638)">
				<title>Dynamic connector.1235</title>
				<path d="M0 479.04 L24.18 479.04 L24.18 432.54 L49.22 432.54" class="st8"/>
			</g>
			<g id="shape1115-126" v:mID="1115" v:groupContext="shape" transform="translate(56.0394,-93.9592)">
				<title>Sheet.1115</title>
				<desc>Section</desc>
				<v:textBlock v:margins="rect(4,4,4,4)"/>
				<v:textRect cx="28.6425" cy="461.037" width="57.29" height="36"/>
				<rect x="0" y="443.037" width="57.285" height="36" class="st1"/>
				<text x="4.29" y="466.44" class="st9" v:langID="1033"><v:paragraph v:horizAlign="1"/><v:tabList/>Section</text>			</g>
			<g id="shape1116-129" v:mID="1116" v:groupContext="shape" transform="translate(-426.442,385.078) rotate(-90)">
				<title>Rectangle.1242</title>
				<v:userDefs>
					<v:ud v:nameU="visVersion" v:val="VT0(15):26"/>
				</v:userDefs>
				<rect x="0" y="475.662" width="36" height="3.375" class="st3"/>
			</g>
			<g id="shape1117-131" v:mID="1117" v:groupContext="shape" transform="translate(148.159,-112.96)">
				<title>Sheet.1117</title>
				<desc>Shared topic *</desc>
				<v:textBlock v:margins="rect(4,4,4,4)"/>
				<v:textRect cx="24.8967" cy="471.454" width="49.8" height="15.1658"/>
				<rect x="0" y="463.871" width="49.7935" height="15.1658" class="st1"/>
				<text x="4.08" y="473.85" class="st10" v:langID="1033"><v:paragraph v:horizAlign="1"/><v:tabList/>Shared topic *</text>			</g>
			<g id="shape1118-134" v:mID="1118" v:groupContext="shape" transform="translate(147.757,-95.7927)">
				<title>Sheet.1118</title>
				<desc>Topic</desc>
				<v:textBlock v:margins="rect(4,4,4,4)"/>
				<v:textRect cx="12.0886" cy="471.454" width="24.18" height="15.1658"/>
				<rect x="0" y="463.871" width="24.1773" height="15.1658" class="st1"/>
				<text x="4.39" y="473.85" class="st11" v:langID="1033"><v:paragraph v:horizAlign="1"/><v:tabList/>Topic</text>			</g>
			<g id="shape1119-137" v:mID="1119" v:groupContext="shape" v:layerMember="0" transform="translate(113.324,-107.24)">
				<title>Dynamic connector.1063</title>
				<path d="M0 474.34 L10.7 474.34 L10.7 465.73 L33.16 465.73" class="st8"/>
			</g>
			<g id="shape1120-140" v:mID="1120" v:groupContext="shape" v:layerMember="0" transform="translate(113.324,-116.657)">
				<title>Dynamic connector.1064</title>
				<path d="M0 483.76 L10.7 483.76 L10.7 492.32 L33.16 492.32" class="st8"/>
			</g>
			<g id="shape1121-143" v:mID="1121" v:groupContext="shape" transform="translate(-330.861,366.077) rotate(-90)">
				<title>Rectangle.1038</title>
				<v:userDefs>
					<v:ud v:nameU="visVersion" v:val="VT0(15):26"/>
				</v:userDefs>
				<rect x="0" y="477.35" width="15.1658" height="1.6875" class="st12"/>
			</g>
			<g id="shape1122-145" v:mID="1122" v:groupContext="shape" transform="translate(-330.861,383.245) rotate(-90)">
				<title>Rectangle.1036</title>
				<v:userDefs>
					<v:ud v:nameU="visVersion" v:val="VT0(15):26"/>
				</v:userDefs>
				<rect x="0" y="477.35" width="15.1658" height="1.6875" class="st12"/>
			</g>
			<g id="group1131-147" transform="translate(49.2198,1.13687E-013)" v:mID="1131" v:groupContext="group">
				<title>Sheet.1131</title>
				<g id="shape1132-148" v:mID="1132" v:groupContext="shape" transform="translate(6.81957,5.68434E-014)">
					<title>Sheet.1132</title>
					<desc>Section</desc>
					<v:textBlock v:margins="rect(4,4,4,4)"/>
					<v:textRect cx="28.6425" cy="461.037" width="57.29" height="36"/>
					<rect x="0" y="443.037" width="57.285" height="36" class="st1"/>
					<text x="4.29" y="466.44" class="st9" v:langID="1033"><v:paragraph v:horizAlign="1"/><v:tabList/>Section</text>				</g>
				<g id="shape1133-151" v:mID="1133" v:groupContext="shape" transform="translate(-475.662,479.037) rotate(-90)">
					<title>Rectangle.1027</title>
					<v:userDefs>
						<v:ud v:nameU="visVersion" v:val="VT0(15):26"/>
					</v:userDefs>
					<rect x="0" y="475.662" width="36" height="3.375" class="st3"/>
				</g>
			</g>
			<g id="shape1134-153" v:mID="1134" v:groupContext="shape" transform="translate(147.757,-1.83354)">
				<title>Sheet.1134</title>
				<desc>Topic</desc>
				<v:textBlock v:margins="rect(4,4,4,4)"/>
				<v:textRect cx="12.0886" cy="471.454" width="24.18" height="15.1658"/>
				<rect x="0" y="463.871" width="24.1773" height="15.1658" class="st1"/>
				<text x="4.39" y="473.85" class="st11" v:langID="1033"><v:paragraph v:horizAlign="1"/><v:tabList/>Topic</text>			</g>
			<g id="shape1135-156" v:mID="1135" v:groupContext="shape" v:layerMember="0" transform="translate(113.324,-13.2809)">
				<title>Dynamic connector.1290</title>
				<path d="M0 474.34 L10.7 474.34 L10.7 465.73 L33.16 465.73" class="st8"/>
			</g>
			<g id="shape1136-159" v:mID="1136" v:groupContext="shape" v:layerMember="0" transform="translate(113.324,-22.6974)">
				<title>Dynamic connector.1291</title>
				<path d="M0 483.76 L10.7 483.76 L10.7 492.32 L33.16 492.32" class="st8"/>
			</g>
			<g id="shape1137-162" v:mID="1137" v:groupContext="shape" transform="translate(-330.861,460.037) rotate(-90)">
				<title>Rectangle.1292</title>
				<v:userDefs>
					<v:ud v:nameU="visVersion" v:val="VT0(15):26"/>
				</v:userDefs>
				<rect x="0" y="477.35" width="15.1658" height="1.6875" class="st12"/>
			</g>
			<g id="shape1138-164" v:mID="1138" v:groupContext="shape" transform="translate(-330.861,477.204) rotate(-90)">
				<title>Rectangle.1293</title>
				<v:userDefs>
					<v:ud v:nameU="visVersion" v:val="VT0(15):26"/>
				</v:userDefs>
				<rect x="0" y="477.35" width="15.1658" height="1.6875" class="st12"/>
			</g>
			<g id="shape1139-166" v:mID="1139" v:groupContext="shape" transform="translate(147.9,-19.0006)">
				<title>Sheet.1139</title>
				<desc>Topic</desc>
				<v:textBlock v:margins="rect(4,4,4,4)"/>
				<v:textRect cx="12.0886" cy="471.454" width="24.18" height="15.1658"/>
				<rect x="0" y="463.871" width="24.1773" height="15.1658" class="st1"/>
				<text x="4.39" y="473.85" class="st11" v:langID="1033"><v:paragraph v:horizAlign="1"/><v:tabList/>Topic</text>			</g>
			<g id="group1149-169" transform="translate(44.9525,-44.2015)" v:mID="1149" v:groupContext="group">
				<title>Sheet.1149</title>
				<g id="shape1150-170" v:mID="1150" v:groupContext="shape">
					<title>Rectangle.5</title>
					<v:userDefs>
						<v:ud v:nameU="visVersion" v:val="VT0(15):26"/>
					</v:userDefs>
					<rect x="0" y="436.287" width="128.25" height="42.75" class="st13"/>
				</g>
				<g id="shape1151-172" v:mID="1151" v:groupContext="shape" transform="translate(12.4303,-3.26224)">
					<title>Sheet.1151</title>
					<desc>Section*</desc>
					<v:textBlock v:margins="rect(4,4,4,4)"/>
					<v:textRect cx="34.2849" cy="461.037" width="68.57" height="36"/>
					<rect x="0" y="443.037" width="68.5697" height="36" class="st1"/>
					<text x="6.35" y="466.44" class="st2" v:langID="1033"><v:paragraph v:horizAlign="1"/><v:tabList/>Section*</text>				</g>
				<g id="shape1152-175" v:mID="1152" v:groupContext="shape" transform="translate(-471.395,475.775) rotate(-90)">
					<title>Rectangle.1252</title>
					<v:userDefs>
						<v:ud v:nameU="visVersion" v:val="VT0(15):26"/>
					</v:userDefs>
					<rect x="0" y="475.662" width="36" height="3.375" class="st3"/>
				</g>
				<g id="shape1153-177" v:mID="1153" v:groupContext="shape" transform="translate(102.805,-5.09578)">
					<title>Sheet.1153</title>
					<desc>Topic</desc>
					<v:textBlock v:margins="rect(4,4,4,4)"/>
					<v:textRect cx="12.0886" cy="471.454" width="24.18" height="15.1658"/>
					<rect x="0" y="463.871" width="24.1773" height="15.1658" class="st1"/>
					<text x="4.39" y="473.85" class="st11" v:langID="1033"><v:paragraph v:horizAlign="1"/><v:tabList/>Topic</text>				</g>
				<g id="shape1154-180" v:mID="1154" v:groupContext="shape" v:layerMember="0" transform="translate(81,-16.5432)">
					<title>Dynamic connector.1255</title>
					<path d="M0 474.34 L6.75 474.34 L6.75 465.73 L20.54 465.73" class="st8"/>
				</g>
				<g id="shape1155-183" v:mID="1155" v:groupContext="shape" v:layerMember="0" transform="translate(81,-25.9596)">
					<title>Dynamic connector.1256</title>
					<path d="M0 483.76 L6.75 483.76 L6.75 492.32 L20.54 492.32" class="st8"/>
				</g>
				<g id="shape1156-186" v:mID="1156" v:groupContext="shape" transform="translate(-375.813,456.774) rotate(-90)">
					<title>Rectangle.1257</title>
					<v:userDefs>
						<v:ud v:nameU="visVersion" v:val="VT0(15):26"/>
					</v:userDefs>
					<rect x="0" y="477.35" width="15.1658" height="1.6875" class="st12"/>
				</g>
				<g id="shape1157-188" v:mID="1157" v:groupContext="shape" transform="translate(-375.813,473.941) rotate(-90)">
					<title>Rectangle.1258</title>
					<v:userDefs>
						<v:ud v:nameU="visVersion" v:val="VT0(15):26"/>
					</v:userDefs>
					<rect x="0" y="477.35" width="15.1658" height="1.6875" class="st12"/>
				</g>
				<g id="shape1158-190" v:mID="1158" v:groupContext="shape" transform="translate(102.948,-22.2629)">
					<title>Sheet.1158</title>
					<desc>Topic</desc>
					<v:textBlock v:margins="rect(4,4,4,4)"/>
					<v:textRect cx="12.0886" cy="471.454" width="24.18" height="15.1658"/>
					<rect x="0" y="463.871" width="24.1773" height="15.1658" class="st1"/>
					<text x="4.39" y="473.85" class="st11" v:langID="1033"><v:paragraph v:horizAlign="1"/><v:tabList/>Topic</text>				</g>
			</g>
		</g>
		<g id="group1175-193" transform="translate(87.4688,-288)" v:mID="1175" v:groupContext="group">
			<title>Sheet.1175</title>
			<g id="shape1173-194" v:mID="1173" v:groupContext="shape" transform="translate(-475.662,479.037) rotate(-90)">
				<title>Rectangle.1173</title>
				<v:userDefs>
					<v:ud v:nameU="visVersion" v:val="VT0(15):26"/>
				</v:userDefs>
				<rect x="0" y="475.662" width="16.0962" height="3.375" class="st3"/>
			</g>
			<g id="shape1172-196" v:mID="1172" v:groupContext="shape" transform="translate(5.0625,5.68434E-014)">
				<title>Sheet.1172</title>
				<desc>XML meta data localization tags</desc>
				<v:textBlock v:margins="rect(4,4,4,4)"/>
				<v:textRect cx="81" cy="470.989" width="162.01" height="16.0962"/>
				<rect x="0" y="462.941" width="162" height="16.0962" class="st1"/>
				<text x="11.65" y="474.59" class="st14" v:langID="1033"><v:paragraph v:horizAlign="1"/><v:tabList/>XML meta data localization tags</text>			</g>
		</g>
		<g id="group1176-199" transform="translate(87.4688,-107.235)" v:mID="1176" v:groupContext="group">
			<title>Sheet.1176</title>
			<g id="shape1177-200" v:mID="1177" v:groupContext="shape" transform="translate(-475.662,479.037) rotate(-90)">
				<title>Rectangle.1173</title>
				<v:userDefs>
					<v:ud v:nameU="visVersion" v:val="VT0(15):26"/>
				</v:userDefs>
				<rect x="0" y="475.662" width="16.0962" height="3.375" class="st3"/>
			</g>
			<g id="shape1178-202" v:mID="1178" v:groupContext="shape" transform="translate(5.0625,5.68434E-014)">
				<title>Sheet.1178</title>
				<desc>XML to media transformation</desc>
				<v:textBlock v:margins="rect(4,4,4,4)"/>
				<v:textRect cx="81" cy="470.989" width="162.01" height="16.0962"/>
				<rect x="0" y="462.941" width="162" height="16.0962" class="st1"/>
				<text x="17.61" y="474.59" class="st14" v:langID="1033"><v:paragraph v:horizAlign="1"/><v:tabList/>XML to media transformation</text>			</g>
		</g>
	</g>
</svg>
