<?xml version="1.0" encoding="UTF-8" standalone="no"?>
<!DOCTYPE svg PUBLIC "-//W3C//DTD SVG 1.1//EN" "http://www.w3.org/Graphics/SVG/1.1/DTD/svg11.dtd">
<!-- Generated by Microsoft Visio, SVG Export content reuse.svg Page-1 -->
<svg xmlns="http://www.w3.org/2000/svg" xmlns:xlink="http://www.w3.org/1999/xlink" xmlns:ev="http://www.w3.org/2001/xml-events"
		xmlns:v="http://schemas.microsoft.com/visio/2003/SVGExtensions/" width="7.12597in" height="4.4758in"
		viewBox="0 0 513.07 322.258" xml:space="preserve" color-interpolation-filters="sRGB" class="st14">
	<v:documentProperties v:langID="1033" v:viewMarkup="false">
		<v:userDefs>
			<v:ud v:nameU="msvSubprocessMaster" v:prompt="" v:val="VT4(Rectangle)"/>
			<v:ud v:nameU="msvNoAutoConnect" v:val="VT0(1):26"/>
		</v:userDefs>
	</v:documentProperties>

	<style type="text/css">
	<![CDATA[
		.st1 {stroke:#7996b5;stroke-width:2}
		.st2 {fill:none;stroke:none;stroke-width:0.25}
		.st3 {fill:#d1526e;font-family:Oswald;font-size:1.5em}
		.st4 {fill:#cecab5;stroke:none;stroke-width:0.25}
		.st5 {fill:#272324;stroke:#272324;stroke-linecap:butt;stroke-width:0.75}
		.st6 {fill:#000000;font-family:Oswald;font-size:1.5em}
		.st7 {fill:#d1526e;font-family:Oswald;font-size:0.666664em}
		.st8 {fill:#000000;font-family:Oswald;font-size:0.666664em}
		.st9 {fill:#7f7f7f;stroke:none;stroke-width:0.25}
		.st10 {marker-end:url(#mrkr4-77);stroke:#7996b5;stroke-linecap:round;stroke-linejoin:round;stroke-width:2}
		.st11 {fill:#7996b5;fill-opacity:1;stroke:#7996b5;stroke-opacity:1;stroke-width:0.52631578947368}
		.st12 {fill:none;stroke:#272324;stroke-width:1.5}
		.st13 {fill:#ffffff;fill-opacity:0.53;stroke:none;stroke-width:0.25}
		.st14 {fill:none;fill-rule:evenodd;font-size:12px;overflow:visible;stroke-linecap:square;stroke-miterlimit:3}
	]]>
	</style>

	<defs id="Markers">
		<g id="lend4">
			<path d="M 2 1 L 0 0 L 2 -1 L 2 1 " style="stroke:none"/>
		</g>
		<marker id="mrkr4-77" class="st11" v:arrowType="4" v:arrowSize="1" v:setback="3.8" refX="-3.8" orient="auto"
				markerUnits="strokeWidth" overflow="visible">
			<use xlink:href="#lend4" transform="scale(-1.9,-1.9) "/>
		</marker>
	</defs>
	<g v:mID="0" v:index="1" v:groupContext="foregroundPage">
		<v:userDefs>
			<v:ud v:nameU="msvThemeOrder" v:val="VT0(0):26"/>
		</v:userDefs>
		<title>Page-1</title>
		<v:pageProperties v:drawingScale="1" v:pageScale="1" v:drawingUnits="0" v:shadowOffsetX="9" v:shadowOffsetY="-9"/>
		<v:layer v:name="Connector" v:index="0"/>
		<g id="shape1236-1" v:mID="1236" v:groupContext="shape" v:layerMember="0" transform="translate(276.797,-230.569)">
			<title>Dynamic connector.1236</title>
			<path d="M0 313.31 L44.95 313.2" class="st1"/>
		</g>
		<g id="shape34-4" v:mID="34" v:groupContext="shape" transform="translate(32.965,-64.5531)">
			<title>Sheet.34</title>
			<desc>Manual v2.0</desc>
			<v:textBlock v:margins="rect(4,4,4,4)"/>
			<v:textRect cx="64.4063" cy="304.258" width="128.82" height="36"/>
			<rect x="0" y="286.258" width="128.813" height="36" class="st2"/>
			<text x="24.65" y="309.66" class="st3" v:langID="1033"><v:paragraph v:horizAlign="1"/><v:tabList/>Manual v2.0</text>		</g>
		<g id="shape35-7" v:mID="35" v:groupContext="shape" transform="translate(-300.633,302.012) rotate(-90)">
			<title>Rectangle.35</title>
			<v:userDefs>
				<v:ud v:nameU="visVersion" v:val="VT0(15):26"/>
			</v:userDefs>
			<rect x="0" y="318.883" width="124.615" height="3.375" class="st4"/>
		</g>
		<g id="shape1090-9" v:mID="1090" v:groupContext="shape" v:layerMember="0" transform="translate(276.797,-82.5531)">
			<title>Dynamic connector.1090</title>
			<path d="M0 322.26 L24.18 322.26 L24.18 368.06 L49.22 368.06" class="st1"/>
		</g>
		<g id="shape1091-12" v:mID="1091" v:groupContext="shape" v:layerMember="0" transform="translate(276.797,-82.5531)">
			<title>Dynamic connector.1091</title>
			<path d="M0 322.26 L24.18 322.26 L24.18 275.76 L49.22 275.76" class="st1"/>
		</g>
		<g id="shape1093-15" v:mID="1093" v:groupContext="shape" v:layerMember="0" transform="translate(276.797,-91.5531)">
			<title>Dynamic connector.1093</title>
			<path d="M0 331.26 L44.95 331.26" class="st1"/>
		</g>
		<g id="shape1-18" v:mID="1" v:groupContext="shape" transform="translate(173.117,-18.75)">
			<title>Document</title>
			<v:userDefs>
				<v:ud v:nameU="msvShapeCategories" v:prompt="" v:val="VT4(Icon)"/>
				<v:ud v:nameU="visVersion" v:prompt="" v:val="VT0(15):26"/>
			</v:userDefs>
			<path d="M19.94 294.34 L19.94 290.36 L83.74 290.36 L83.74 294.34 L19.94 294.34 ZM19.94 278.39 L19.94 274.41 L83.74 274.41
						 L83.74 278.39 L19.94 278.39 ZM19.94 262.44 L19.94 258.45 L83.74 258.45 L83.74 262.44 L19.94 262.44 ZM19.94
						 246.49 L19.94 242.5 L83.74 242.5 L83.74 246.49 L19.94 246.49 ZM19.94 230.54 L19.94 226.55 L59.97 226.55
						 L59.97 230.54 L19.94 230.54 ZM95.7 314.28 L95.7 226.55 L71.78 226.55 L71.78 202.63 L7.98 202.63 L7.98 314.28
						 L95.7 314.28 ZM94.71 222.57 L75.77 203.62 L75.77 222.57 L94.71 222.57 ZM78.76 194.65 L103.68 219.57 L103.68
						 322.26 L0 322.26 L0 194.65 L78.76 194.65 Z" class="st5"/>
		</g>
		<g id="shape1232-20" v:mID="1232" v:groupContext="shape" transform="translate(32.965,-221.512)">
			<title>Sheet.1232</title>
			<desc>Manual v1.0</desc>
			<v:textBlock v:margins="rect(4,4,4,4)"/>
			<v:textRect cx="64.4063" cy="304.258" width="128.82" height="36"/>
			<rect x="0" y="286.258" width="128.813" height="36" class="st2"/>
			<text x="25.39" y="309.66" class="st3" v:langID="1033"><v:paragraph v:horizAlign="1"/><v:tabList/>Manual v1.0</text>		</g>
		<g id="shape1233-23" v:mID="1233" v:groupContext="shape" transform="translate(-300.633,145.053) rotate(-90)">
			<title>Rectangle.1233</title>
			<v:userDefs>
				<v:ud v:nameU="visVersion" v:val="VT0(15):26"/>
			</v:userDefs>
			<rect x="0" y="318.883" width="124.615" height="3.375" class="st4"/>
		</g>
		<g id="shape1234-25" v:mID="1234" v:groupContext="shape" v:layerMember="0" transform="translate(276.797,-239.512)">
			<title>Dynamic connector.1234</title>
			<path d="M0 322.26 L24.18 322.26 L24.18 369.72 L49.22 369.72" class="st1"/>
		</g>
		<g id="shape1235-28" v:mID="1235" v:groupContext="shape" v:layerMember="0" transform="translate(276.797,-239.512)">
			<title>Dynamic connector.1235</title>
			<path d="M0 322.26 L24.18 322.26 L24.18 275.76 L49.22 275.76" class="st1"/>
		</g>
		<g id="shape1238-31" v:mID="1238" v:groupContext="shape" transform="translate(173.117,-175.709)">
			<title>Document.1238</title>
			<v:userDefs>
				<v:ud v:nameU="msvShapeCategories" v:prompt="" v:val="VT4(Icon)"/>
				<v:ud v:nameU="visVersion" v:prompt="" v:val="VT0(15):26"/>
			</v:userDefs>
			<path d="M19.94 294.34 L19.94 290.36 L83.74 290.36 L83.74 294.34 L19.94 294.34 ZM19.94 278.39 L19.94 274.41 L83.74 274.41
						 L83.74 278.39 L19.94 278.39 ZM19.94 262.44 L19.94 258.45 L83.74 258.45 L83.74 262.44 L19.94 262.44 ZM19.94
						 246.49 L19.94 242.5 L83.74 242.5 L83.74 246.49 L19.94 246.49 ZM19.94 230.54 L19.94 226.55 L59.97 226.55
						 L59.97 230.54 L19.94 230.54 ZM95.7 314.28 L95.7 226.55 L71.78 226.55 L71.78 202.63 L7.98 202.63 L7.98 314.28
						 L95.7 314.28 ZM94.71 222.57 L75.77 203.62 L75.77 222.57 L94.71 222.57 ZM78.76 194.65 L103.68 219.57 L103.68
						 322.26 L0 322.26 L0 194.65 L78.76 194.65 Z" class="st5"/>
		</g>
		<g id="shape1241-33" v:mID="1241" v:groupContext="shape" transform="translate(332.837,-268.008)">
			<title>Sheet.1241</title>
			<desc>Section</desc>
			<v:textBlock v:margins="rect(4,4,4,4)"/>
			<v:textRect cx="28.6425" cy="304.258" width="57.29" height="36"/>
			<rect x="0" y="286.258" width="57.285" height="36" class="st2"/>
			<text x="4.29" y="309.66" class="st6" v:langID="1033"><v:paragraph v:horizAlign="1"/><v:tabList/>Section</text>		</g>
		<g id="shape1242-36" v:mID="1242" v:groupContext="shape" transform="translate(7.13466,54.25) rotate(-90)">
			<title>Rectangle.1242</title>
			<v:userDefs>
				<v:ud v:nameU="visVersion" v:val="VT0(15):26"/>
			</v:userDefs>
			<rect x="0" y="318.883" width="36" height="3.375" class="st4"/>
		</g>
		<g id="shape1243-38" v:mID="1243" v:groupContext="shape" transform="translate(424.957,-287.008)">
			<title>Sheet.1243</title>
			<desc>Shared topic *</desc>
			<v:textBlock v:margins="rect(4,4,4,4)"/>
			<v:textRect cx="24.8967" cy="314.675" width="49.8" height="15.1658"/>
			<rect x="0" y="307.092" width="49.7935" height="15.1658" class="st2"/>
			<text x="4.08" y="317.07" class="st7" v:langID="1033"><v:paragraph v:horizAlign="1"/><v:tabList/>Shared topic *</text>		</g>
		<g id="shape1244-41" v:mID="1244" v:groupContext="shape" transform="translate(424.555,-269.841)">
			<title>Sheet.1244</title>
			<desc>Topic</desc>
			<v:textBlock v:margins="rect(4,4,4,4)"/>
			<v:textRect cx="12.0886" cy="314.675" width="24.18" height="15.1658"/>
			<rect x="0" y="307.092" width="24.1773" height="15.1658" class="st2"/>
			<text x="4.39" y="317.07" class="st8" v:langID="1033"><v:paragraph v:horizAlign="1"/><v:tabList/>Topic</text>		</g>
		<g id="shape1245-44" v:mID="1245" v:groupContext="shape" v:layerMember="0" transform="translate(390.122,-281.289)">
			<title>Dynamic connector.1063</title>
			<path d="M0 317.56 L10.7 317.56 L10.7 308.96 L33.16 308.96" class="st1"/>
		</g>
		<g id="shape1246-47" v:mID="1246" v:groupContext="shape" v:layerMember="0" transform="translate(390.122,-290.705)">
			<title>Dynamic connector.1064</title>
			<path d="M0 326.98 L10.7 326.98 L10.7 335.54 L33.16 335.54" class="st1"/>
		</g>
		<g id="shape1247-50" v:mID="1247" v:groupContext="shape" transform="translate(102.716,35.2494) rotate(-90)">
			<title>Rectangle.1038</title>
			<v:userDefs>
				<v:ud v:nameU="visVersion" v:val="VT0(15):26"/>
			</v:userDefs>
			<rect x="0" y="320.57" width="15.1658" height="1.6875" class="st9"/>
		</g>
		<g id="shape1248-52" v:mID="1248" v:groupContext="shape" transform="translate(102.716,52.4165) rotate(-90)">
			<title>Rectangle.1036</title>
			<v:userDefs>
				<v:ud v:nameU="visVersion" v:val="VT0(15):26"/>
			</v:userDefs>
			<rect x="0" y="320.57" width="15.1658" height="1.6875" class="st9"/>
		</g>
		<g id="shape1272-54" v:mID="1272" v:groupContext="shape" transform="translate(332.837,-110.356)">
			<title>Sheet.1272</title>
			<desc>Section</desc>
			<v:textBlock v:margins="rect(4,4,4,4)"/>
			<v:textRect cx="28.6425" cy="304.258" width="57.29" height="36"/>
			<rect x="0" y="286.258" width="57.285" height="36" class="st2"/>
			<text x="4.29" y="309.66" class="st6" v:langID="1033"><v:paragraph v:horizAlign="1"/><v:tabList/>Section</text>		</g>
		<g id="shape1273-57" v:mID="1273" v:groupContext="shape" transform="translate(7.13466,211.901) rotate(-90)">
			<title>Rectangle.1027</title>
			<v:userDefs>
				<v:ud v:nameU="visVersion" v:val="VT0(15):26"/>
			</v:userDefs>
			<rect x="0" y="318.883" width="36" height="3.375" class="st4"/>
		</g>
		<g id="shape1275-59" v:mID="1275" v:groupContext="shape" transform="translate(424.555,-112.19)">
			<title>Sheet.1275</title>
			<desc>Topic</desc>
			<v:textBlock v:margins="rect(4,4,4,4)"/>
			<v:textRect cx="12.0886" cy="314.675" width="24.18" height="15.1658"/>
			<rect x="0" y="307.092" width="24.1773" height="15.1658" class="st2"/>
			<text x="4.39" y="317.07" class="st8" v:langID="1033"><v:paragraph v:horizAlign="1"/><v:tabList/>Topic</text>		</g>
		<g id="shape1276-62" v:mID="1276" v:groupContext="shape" v:layerMember="0" transform="translate(390.122,-123.637)">
			<title>Dynamic connector.1276</title>
			<path d="M0 317.56 L10.7 317.56 L10.7 308.96 L33.16 308.96" class="st1"/>
		</g>
		<g id="shape1277-65" v:mID="1277" v:groupContext="shape" v:layerMember="0" transform="translate(390.122,-133.054)">
			<title>Dynamic connector.1277</title>
			<path d="M0 326.98 L10.7 326.98 L10.7 335.54 L33.16 335.54" class="st1"/>
		</g>
		<g id="shape1278-68" v:mID="1278" v:groupContext="shape" transform="translate(102.716,192.901) rotate(-90)">
			<title>Rectangle.1278</title>
			<v:userDefs>
				<v:ud v:nameU="visVersion" v:val="VT0(15):26"/>
			</v:userDefs>
			<rect x="0" y="320.57" width="15.1658" height="1.6875" class="st9"/>
		</g>
		<g id="shape1279-70" v:mID="1279" v:groupContext="shape" transform="translate(102.716,210.068) rotate(-90)">
			<title>Rectangle.1279</title>
			<v:userDefs>
				<v:ud v:nameU="visVersion" v:val="VT0(15):26"/>
			</v:userDefs>
			<rect x="0" y="320.57" width="15.1658" height="1.6875" class="st9"/>
		</g>
		<g id="shape1280-72" v:mID="1280" v:groupContext="shape" v:layerMember="0" transform="translate(481.726,-295.298)">
			<title>Dynamic connector.1280</title>
			<path d="M-6.98 322.26 L2.02 322.26 L2.02 479.91 L-3.42 479.91" class="st10"/>
		</g>
		<g id="group1286-78" transform="translate(326.017,-174.048)" v:mID="1286" v:groupContext="group">
			<title>Sheet.1286</title>
			<g id="shape1287-79" v:mID="1287" v:groupContext="shape" transform="translate(6.81957,5.68434E-014)">
				<title>Sheet.1287</title>
				<desc>Section</desc>
				<v:textBlock v:margins="rect(4,4,4,4)"/>
				<v:textRect cx="28.6425" cy="304.258" width="57.29" height="36"/>
				<rect x="0" y="286.258" width="57.285" height="36" class="st2"/>
				<text x="4.29" y="309.66" class="st6" v:langID="1033"><v:paragraph v:horizAlign="1"/><v:tabList/>Section</text>			</g>
			<g id="shape1288-82" v:mID="1288" v:groupContext="shape" transform="translate(-318.883,322.258) rotate(-90)">
				<title>Rectangle.1027</title>
				<v:userDefs>
					<v:ud v:nameU="visVersion" v:val="VT0(15):26"/>
				</v:userDefs>
				<rect x="0" y="318.883" width="36" height="3.375" class="st4"/>
			</g>
		</g>
		<g id="shape1289-84" v:mID="1289" v:groupContext="shape" transform="translate(424.555,-175.882)">
			<title>Sheet.1289</title>
			<desc>Topic</desc>
			<v:textBlock v:margins="rect(4,4,4,4)"/>
			<v:textRect cx="12.0886" cy="314.675" width="24.18" height="15.1658"/>
			<rect x="0" y="307.092" width="24.1773" height="15.1658" class="st2"/>
			<text x="4.39" y="317.07" class="st8" v:langID="1033"><v:paragraph v:horizAlign="1"/><v:tabList/>Topic</text>		</g>
		<g id="shape1290-87" v:mID="1290" v:groupContext="shape" v:layerMember="0" transform="translate(390.122,-187.329)">
			<title>Dynamic connector.1290</title>
			<path d="M0 317.56 L10.7 317.56 L10.7 308.96 L33.16 308.96" class="st1"/>
		</g>
		<g id="shape1291-90" v:mID="1291" v:groupContext="shape" v:layerMember="0" transform="translate(390.122,-196.746)">
			<title>Dynamic connector.1291</title>
			<path d="M0 326.98 L10.7 326.98 L10.7 335.54 L33.16 335.54" class="st1"/>
		</g>
		<g id="shape1292-93" v:mID="1292" v:groupContext="shape" transform="translate(102.716,129.209) rotate(-90)">
			<title>Rectangle.1292</title>
			<v:userDefs>
				<v:ud v:nameU="visVersion" v:val="VT0(15):26"/>
			</v:userDefs>
			<rect x="0" y="320.57" width="15.1658" height="1.6875" class="st9"/>
		</g>
		<g id="shape1293-95" v:mID="1293" v:groupContext="shape" transform="translate(102.716,146.376) rotate(-90)">
			<title>Rectangle.1293</title>
			<v:userDefs>
				<v:ud v:nameU="visVersion" v:val="VT0(15):26"/>
			</v:userDefs>
			<rect x="0" y="320.57" width="15.1658" height="1.6875" class="st9"/>
		</g>
		<g id="shape1294-97" v:mID="1294" v:groupContext="shape" transform="translate(424.698,-193.049)">
			<title>Sheet.1294</title>
			<desc>Topic</desc>
			<v:textBlock v:margins="rect(4,4,4,4)"/>
			<v:textRect cx="12.0886" cy="314.675" width="24.18" height="15.1658"/>
			<rect x="0" y="307.092" width="24.1773" height="15.1658" class="st2"/>
			<text x="4.39" y="317.07" class="st8" v:langID="1033"><v:paragraph v:horizAlign="1"/><v:tabList/>Topic</text>		</g>
		<g id="group1306-100" transform="translate(326.017,-18.75)" v:mID="1306" v:groupContext="group">
			<title>Sheet.1306</title>
			<g id="shape1307-101" v:mID="1307" v:groupContext="shape" transform="translate(6.81957,5.68434E-014)">
				<title>Sheet.1307</title>
				<desc>Section</desc>
				<v:textBlock v:margins="rect(4,4,4,4)"/>
				<v:textRect cx="28.6425" cy="304.258" width="57.29" height="36"/>
				<rect x="0" y="286.258" width="57.285" height="36" class="st2"/>
				<text x="4.29" y="309.66" class="st6" v:langID="1033"><v:paragraph v:horizAlign="1"/><v:tabList/>Section</text>			</g>
			<g id="shape1308-104" v:mID="1308" v:groupContext="shape" transform="translate(-318.883,322.258) rotate(-90)">
				<title>Rectangle.1027</title>
				<v:userDefs>
					<v:ud v:nameU="visVersion" v:val="VT0(15):26"/>
				</v:userDefs>
				<rect x="0" y="318.883" width="36" height="3.375" class="st4"/>
			</g>
		</g>
		<g id="shape1309-106" v:mID="1309" v:groupContext="shape" transform="translate(424.555,-20.5835)">
			<title>Sheet.1309</title>
			<desc>Topic</desc>
			<v:textBlock v:margins="rect(4,4,4,4)"/>
			<v:textRect cx="12.0886" cy="314.675" width="24.18" height="15.1658"/>
			<rect x="0" y="307.092" width="24.1773" height="15.1658" class="st2"/>
			<text x="4.39" y="317.07" class="st8" v:langID="1033"><v:paragraph v:horizAlign="1"/><v:tabList/>Topic</text>		</g>
		<g id="shape1310-109" v:mID="1310" v:groupContext="shape" v:layerMember="0" transform="translate(390.122,-32.0309)">
			<title>Dynamic connector.1310</title>
			<path d="M0 317.56 L10.7 317.56 L10.7 308.96 L33.16 308.96" class="st1"/>
		</g>
		<g id="shape1311-112" v:mID="1311" v:groupContext="shape" v:layerMember="0" transform="translate(390.122,-41.4474)">
			<title>Dynamic connector.1311</title>
			<path d="M0 326.98 L10.7 326.98 L10.7 335.54 L33.16 335.54" class="st1"/>
		</g>
		<g id="shape1312-115" v:mID="1312" v:groupContext="shape" transform="translate(102.716,284.507) rotate(-90)">
			<title>Rectangle.1312</title>
			<v:userDefs>
				<v:ud v:nameU="visVersion" v:val="VT0(15):26"/>
			</v:userDefs>
			<rect x="0" y="320.57" width="15.1658" height="1.6875" class="st9"/>
		</g>
		<g id="shape1313-117" v:mID="1313" v:groupContext="shape" transform="translate(102.716,301.674) rotate(-90)">
			<title>Rectangle.1313</title>
			<v:userDefs>
				<v:ud v:nameU="visVersion" v:val="VT0(15):26"/>
			</v:userDefs>
			<rect x="0" y="320.57" width="15.1658" height="1.6875" class="st9"/>
		</g>
		<g id="shape1314-119" v:mID="1314" v:groupContext="shape" transform="translate(424.698,-37.7506)">
			<title>Sheet.1314</title>
			<desc>Topic</desc>
			<v:textBlock v:margins="rect(4,4,4,4)"/>
			<v:textRect cx="12.0886" cy="314.675" width="24.18" height="15.1658"/>
			<rect x="0" y="307.092" width="24.1773" height="15.1658" class="st2"/>
			<text x="4.39" y="317.07" class="st8" v:langID="1033"><v:paragraph v:horizAlign="1"/><v:tabList/>Topic</text>		</g>
		<g id="group1334-122" transform="translate(321.75,-218.25)" v:mID="1334" v:groupContext="group">
			<title>Sheet.1334</title>
			<g id="shape1320-123" v:mID="1320" v:groupContext="shape">
				<title>Rectangle.5</title>
				<v:userDefs>
					<v:ud v:nameU="visVersion" v:val="VT0(15):26"/>
				</v:userDefs>
				<rect x="0" y="279.508" width="128.25" height="42.75" class="st12"/>
			</g>
			<g id="shape1251-125" v:mID="1251" v:groupContext="shape" transform="translate(12.4303,-3.26224)">
				<title>Sheet.1251</title>
				<desc>Section*</desc>
				<v:textBlock v:margins="rect(4,4,4,4)"/>
				<v:textRect cx="34.2849" cy="304.258" width="68.57" height="36"/>
				<rect x="0" y="286.258" width="68.5697" height="36" class="st2"/>
				<text x="6.35" y="309.66" class="st3" v:langID="1033"><v:paragraph v:horizAlign="1"/><v:tabList/>Section*</text>			</g>
			<g id="shape1252-128" v:mID="1252" v:groupContext="shape" transform="translate(-314.615,318.995) rotate(-90)">
				<title>Rectangle.1252</title>
				<v:userDefs>
					<v:ud v:nameU="visVersion" v:val="VT0(15):26"/>
				</v:userDefs>
				<rect x="0" y="318.883" width="36" height="3.375" class="st4"/>
			</g>
			<g id="shape1254-130" v:mID="1254" v:groupContext="shape" transform="translate(102.805,-5.09578)">
				<title>Sheet.1254</title>
				<desc>Topic</desc>
				<v:textBlock v:margins="rect(4,4,4,4)"/>
				<v:textRect cx="12.0886" cy="314.675" width="24.18" height="15.1658"/>
				<rect x="0" y="307.092" width="24.1773" height="15.1658" class="st2"/>
				<text x="4.39" y="317.07" class="st8" v:langID="1033"><v:paragraph v:horizAlign="1"/><v:tabList/>Topic</text>			</g>
			<g id="shape1255-133" v:mID="1255" v:groupContext="shape" v:layerMember="0" transform="translate(81,-16.5432)">
				<title>Dynamic connector.1255</title>
				<path d="M0 317.56 L6.75 317.56 L6.75 308.96 L20.54 308.96" class="st1"/>
			</g>
			<g id="shape1256-136" v:mID="1256" v:groupContext="shape" v:layerMember="0" transform="translate(81,-25.9596)">
				<title>Dynamic connector.1256</title>
				<path d="M0 326.98 L6.75 326.98 L6.75 335.54 L20.54 335.54" class="st1"/>
			</g>
			<g id="shape1257-139" v:mID="1257" v:groupContext="shape" transform="translate(-219.034,299.995) rotate(-90)">
				<title>Rectangle.1257</title>
				<v:userDefs>
					<v:ud v:nameU="visVersion" v:val="VT0(15):26"/>
				</v:userDefs>
				<rect x="0" y="320.57" width="15.1658" height="1.6875" class="st9"/>
			</g>
			<g id="shape1258-141" v:mID="1258" v:groupContext="shape" transform="translate(-219.034,317.162) rotate(-90)">
				<title>Rectangle.1258</title>
				<v:userDefs>
					<v:ud v:nameU="visVersion" v:val="VT0(15):26"/>
				</v:userDefs>
				<rect x="0" y="320.57" width="15.1658" height="1.6875" class="st9"/>
			</g>
			<g id="shape1283-143" v:mID="1283" v:groupContext="shape" transform="translate(102.948,-22.2629)">
				<title>Sheet.1283</title>
				<desc>Topic</desc>
				<v:textBlock v:margins="rect(4,4,4,4)"/>
				<v:textRect cx="12.0886" cy="314.675" width="24.18" height="15.1658"/>
				<rect x="0" y="307.092" width="24.1773" height="15.1658" class="st2"/>
				<text x="4.39" y="317.07" class="st8" v:langID="1033"><v:paragraph v:horizAlign="1"/><v:tabList/>Topic</text>			</g>
		</g>
		<g id="shape1337-146" v:mID="1337" v:groupContext="shape" transform="translate(321.75,-61.1781)">
			<title>Rectangle.5</title>
			<v:userDefs>
				<v:ud v:nameU="visVersion" v:val="VT0(15):26"/>
			</v:userDefs>
			<rect x="0" y="279.508" width="128.25" height="42.75" class="st12"/>
		</g>
		<g id="shape1340-148" v:mID="1340" v:groupContext="shape" transform="translate(424.555,-66.2739)">
			<title>Sheet.1340</title>
			<desc>Topic</desc>
			<v:textBlock v:margins="rect(4,4,4,4)"/>
			<v:textRect cx="12.0886" cy="314.675" width="24.18" height="15.1658"/>
			<rect x="0" y="307.092" width="24.1773" height="15.1658" class="st2"/>
			<text x="4.39" y="317.07" class="st8" v:langID="1033"><v:paragraph v:horizAlign="1"/><v:tabList/>Topic</text>		</g>
		<g id="shape1341-151" v:mID="1341" v:groupContext="shape" v:layerMember="0" transform="translate(391.465,-77.7151)">
			<title>Dynamic connector.1255</title>
			<path d="M0 317.57 L9.32 317.57 L9.32 308.95 L31.82 308.95" class="st1"/>
		</g>
		<g id="shape1342-154" v:mID="1342" v:groupContext="shape" v:layerMember="0" transform="translate(391.465,-87.1315)">
			<title>Dynamic connector.1256</title>
			<path d="M0 326.98 L9.32 326.98 L9.32 335.53 L31.82 335.53" class="st1"/>
		</g>
		<g id="shape1343-157" v:mID="1343" v:groupContext="shape" transform="translate(102.716,238.817) rotate(-90)">
			<title>Rectangle.1257</title>
			<v:userDefs>
				<v:ud v:nameU="visVersion" v:val="VT0(15):26"/>
			</v:userDefs>
			<rect x="0" y="320.57" width="15.1658" height="1.6875" class="st9"/>
		</g>
		<g id="shape1344-159" v:mID="1344" v:groupContext="shape" transform="translate(102.716,255.984) rotate(-90)">
			<title>Rectangle.1258</title>
			<v:userDefs>
				<v:ud v:nameU="visVersion" v:val="VT0(15):26"/>
			</v:userDefs>
			<rect x="0" y="320.57" width="15.1658" height="1.6875" class="st9"/>
		</g>
		<g id="shape1345-161" v:mID="1345" v:groupContext="shape" transform="translate(424.698,-83.4409)">
			<title>Sheet.1345</title>
			<desc>Topic</desc>
			<v:textBlock v:margins="rect(4,4,4,4)"/>
			<v:textRect cx="12.0886" cy="314.675" width="24.18" height="15.1658"/>
			<rect x="0" y="307.092" width="24.1773" height="15.1658" class="st2"/>
			<text x="4.39" y="317.07" class="st8" v:langID="1033"><v:paragraph v:horizAlign="1"/><v:tabList/>Topic</text>		</g>
		<g id="group1346-164" transform="translate(326.017,-64.4403)" v:mID="1346" v:groupContext="group">
			<title>Sheet.1346</title>
			<g id="shape1338-165" v:mID="1338" v:groupContext="shape" transform="translate(8.16298,5.68434E-014)">
				<title>Sheet.1338</title>
				<desc>Section</desc>
				<v:textBlock v:margins="rect(4,4,4,4)"/>
				<v:textRect cx="28.6425" cy="304.258" width="57.29" height="36"/>
				<rect x="0" y="286.258" width="57.285" height="36" class="st2"/>
				<text x="4.29" y="309.66" class="st3" v:langID="1033"><v:paragraph v:horizAlign="1"/><v:tabList/>Section</text>			</g>
			<g id="shape1339-168" v:mID="1339" v:groupContext="shape" transform="translate(-318.883,322.258) rotate(-90)">
				<title>Rectangle.1252</title>
				<v:userDefs>
					<v:ud v:nameU="visVersion" v:val="VT0(15):26"/>
				</v:userDefs>
				<rect x="0" y="318.883" width="36" height="3.375" class="st4"/>
			</g>
		</g>
		<g id="shape1349-170" v:mID="1349" v:groupContext="shape" v:layerMember="0" transform="translate(459,-239.625)">
			<title>Dynamic connector.1349</title>
			<path d="M-9 322.26 L9 322.26 L9 479.33 L-1.4 479.33" class="st10"/>
		</g>
		<g id="shape1274-175" v:mID="1274" v:groupContext="shape" transform="translate(424.949,-129.357)">
			<title>Sheet.1274</title>
			<desc>Shared topic</desc>
			<v:textBlock v:margins="rect(4,4,4,4)"/>
			<v:textRect cx="22.3693" cy="314.675" width="44.74" height="15.1658"/>
			<rect x="0" y="307.092" width="44.7387" height="15.1658" class="st13"/>
			<text x="4.07" y="317.07" class="st7" v:langID="1033"><v:paragraph v:horizAlign="1"/><v:tabList/>Shared topic</text>		</g>
	</g>
</svg>
